<svg width="58" height="56" viewBox="0 0 58 56" fill="none" xmlns="http://www.w3.org/2000/svg">
<path d="M49.3 11.6H40.6V8.7C40.6 6.39262 39.6834 4.17974 38.0518 2.54817C36.4203 0.916605 34.2074 0 31.9 0H26.1C23.7926 0 21.5797 0.916605 19.9482 2.54817C18.3166 4.17974 17.4 6.39262 17.4 8.7V11.6H8.7C6.39262 11.6 4.17974 12.5166 2.54817 14.1482C0.916605 15.7797 0 17.9926 0 20.3V46.4C0 48.7074 0.916605 50.9203 2.54817 52.5518C4.17974 54.1834 6.39262 55.1 8.7 55.1H49.3C51.6074 55.1 53.8203 54.1834 55.4518 52.5518C57.0834 50.9203 58 48.7074 58 46.4V20.3C58 17.9926 57.0834 15.7797 55.4518 14.1482C53.8203 12.5166 51.6074 11.6 49.3 11.6ZM23.2 8.7C23.2 7.93087 23.5055 7.19325 24.0494 6.64939C24.5932 6.10554 25.3309 5.8 26.1 5.8H31.9C32.6691 5.8 33.4068 6.10554 33.9506 6.64939C34.4945 7.19325 34.8 7.93087 34.8 8.7V11.6H23.2V8.7ZM52.2 46.4C52.2 47.1691 51.8945 47.9068 51.3506 48.4506C50.8068 48.9945 50.0691 49.3 49.3 49.3H8.7C7.93087 49.3 7.19325 48.9945 6.64939 48.4506C6.10554 47.9068 5.8 47.1691 5.8 46.4V30.45C8.62879 31.572 11.5367 32.4832 14.5 33.176V34.887C14.5 35.6561 14.8055 36.3938 15.3494 36.9376C15.8932 37.4815 16.6309 37.787 17.4 37.787C18.1691 37.787 18.9068 37.4815 19.4506 36.9376C19.9945 36.3938 20.3 35.6561 20.3 34.887V34.278C23.1836 34.6706 26.0898 34.874 29 34.887C31.9102 34.874 34.8164 34.6706 37.7 34.278V34.887C37.7 35.6561 38.0055 36.3938 38.5494 36.9376C39.0932 37.4815 39.8309 37.787 40.6 37.787C41.3691 37.787 42.1068 37.4815 42.6506 36.9376C43.1945 36.3938 43.5 35.6561 43.5 34.887V33.176C46.4633 32.4832 49.3712 31.572 52.2 30.45V46.4ZM52.2 24.099C49.3794 25.2894 46.4707 26.259 43.5 26.999V26.1C43.5 25.3309 43.1945 24.5932 42.6506 24.0494C42.1068 23.5055 41.3691 23.2 40.6 23.2C39.8309 23.2 39.0932 23.5055 38.5494 24.0494C38.0055 24.5932 37.7 25.3309 37.7 26.1V28.246C31.9326 29.1161 26.0674 29.1161 20.3 28.246V26.1C20.3 25.3309 19.9945 24.5932 19.4506 24.0494C18.9068 23.5055 18.1691 23.2 17.4 23.2C16.6309 23.2 15.8932 23.5055 15.3494 24.0494C14.8055 24.5932 14.5 25.3309 14.5 26.1V27.057C11.5293 26.317 8.62055 25.3474 5.8 24.157V20.3C5.8 19.5309 6.10554 18.7932 6.64939 18.2494C7.19325 17.7055 7.93087 17.4 8.7 17.4H49.3C50.0691 17.4 50.8068 17.7055 51.3506 18.2494C51.8945 18.7932 52.2 19.5309 52.2 20.3V24.099Z" fill="#00194A"/>
</svg>
