<svg width="59" height="59" viewBox="0 0 59 59" fill="none" xmlns="http://www.w3.org/2000/svg">
<path d="M45.7247 17.9912C45.6437 17.9912 45.5897 17.9912 45.5086 17.9912H45.3735C40.2679 17.8292 36.459 13.8851 36.459 9.02264C36.459 4.0521 40.5111 0.0270386 45.4546 0.0270386C50.3981 0.0270386 54.4502 4.07911 54.4502 9.02264C54.4232 13.9121 50.6142 17.8562 45.7517 18.0182C45.7517 17.9912 45.7517 17.9912 45.7247 17.9912ZM45.4546 4.05212C42.7262 4.05212 40.5111 6.26725 40.5111 8.99565C40.5111 11.67 42.5911 13.8311 45.2655 13.9392C45.2925 13.9122 45.5086 13.9122 45.7517 13.9392C48.3721 13.8041 50.3981 11.643 50.4251 8.99565C50.4251 6.26725 48.21 4.05212 45.4546 4.05212Z" fill="#001C51"/>
<path d="M45.7521 37.9006C44.6985 37.9006 43.645 37.8196 42.5915 37.6305C41.4839 37.4414 40.7545 36.3879 40.9436 35.2803C41.1327 34.1727 42.1863 33.4434 43.2938 33.6325C46.6165 34.1998 50.1283 33.5787 52.4785 32.0119C53.7482 31.1745 54.4235 30.1207 54.4235 29.0671C54.4235 28.0136 53.7212 26.9871 52.4785 26.1496C50.1283 24.5828 46.5625 23.9615 43.2128 24.5558C42.1052 24.7719 41.0517 24.0156 40.8626 22.9081C40.6735 21.8006 41.4029 20.747 42.5104 20.5579C46.9137 19.7745 51.479 20.6119 54.7207 22.773C57.0979 24.3667 58.4756 26.6359 58.4756 29.0671C58.4756 31.4714 57.1249 33.7678 54.7207 35.3886C52.2624 37.0095 49.0748 37.9006 45.7521 37.9006Z" fill="#001C51"/>
<path d="M13.2273 17.9912C13.2003 17.9912 13.1733 17.9912 13.1733 17.9912C8.31081 17.8291 4.50187 13.8851 4.47485 9.02261C4.47485 4.05207 8.52693 0 13.4705 0C18.414 0 22.466 4.05207 22.466 8.9956C22.466 13.8851 18.6571 17.8291 13.7946 17.9912L13.2273 15.9652L13.4164 17.9912C13.3624 17.9912 13.2814 17.9912 13.2273 17.9912ZM13.4975 13.9391C13.6595 13.9391 13.7946 13.9391 13.9567 13.9661C16.3609 13.8581 18.468 11.697 18.468 9.02261C18.468 6.29422 16.2529 4.07906 13.5245 4.07906C10.7961 4.07906 8.58095 6.29422 8.58095 9.02261C8.58095 11.67 10.634 13.8041 13.2543 13.9661C13.2814 13.9391 13.3894 13.9391 13.4975 13.9391Z" fill="#001C51"/>
<path d="M13.1991 37.9006C9.87639 37.9006 6.68876 37.0095 4.23051 35.3886C1.85329 33.7948 0.475586 31.4984 0.475586 29.0671C0.475586 26.6629 1.85329 24.3667 4.23051 22.773C7.47216 20.6119 12.0375 19.7745 16.4407 20.5579C17.5483 20.747 18.2777 21.8006 18.0886 22.9081C17.8995 24.0156 16.846 24.7719 15.7384 24.5558C12.3887 23.9615 8.84987 24.5828 6.47265 26.1496C5.203 26.9871 4.52766 28.0136 4.52766 29.0671C4.52766 30.1207 5.23002 31.1745 6.47265 32.0119C8.82285 33.5787 12.3346 34.1998 15.6573 33.6325C16.7649 33.4434 17.8184 34.1998 18.0075 35.2803C18.1966 36.3879 17.4673 37.4414 16.3597 37.6305C15.3062 37.8196 14.2526 37.9006 13.1991 37.9006Z" fill="#001C51"/>
<path d="M29.5162 38.1705C29.4352 38.1705 29.3811 38.1705 29.3001 38.1705H29.165C24.0594 38.0085 20.2505 34.0644 20.2505 29.202C20.2505 24.2314 24.3025 20.2063 29.2461 20.2063C34.1896 20.2063 38.2417 24.2584 38.2417 29.202C38.2146 34.0914 34.4057 38.0355 29.5432 38.1975C29.5432 38.1705 29.5432 38.1705 29.5162 38.1705ZM29.2461 24.2314C26.5177 24.2314 24.3025 26.4465 24.3025 29.1749C24.3025 31.8493 26.3826 34.0104 29.057 34.1185C29.084 34.0914 29.3001 34.0914 29.5432 34.1185C32.1636 33.9834 34.1896 31.8223 34.2166 29.1749C34.2166 26.4736 32.0015 24.2314 29.2461 24.2314Z" fill="#001C51"/>
<path d="M29.5135 58.1067C26.2718 58.1067 23.0301 57.2692 20.5179 55.5674C18.1406 53.9736 16.7629 51.7044 16.7629 49.2732C16.7629 46.8689 18.1136 44.5457 20.5179 42.9519C25.5694 39.6022 33.4845 39.6022 38.5091 42.9519C40.8863 44.5457 42.264 46.8149 42.264 49.2461C42.264 51.6504 40.9133 53.9736 38.5091 55.5674C35.9968 57.2422 32.7551 58.1067 29.5135 58.1067ZM22.76 46.3557C21.4904 47.1931 20.815 48.2466 20.815 49.3002C20.815 50.3537 21.5174 51.3802 22.76 52.2177C26.4069 54.6759 32.593 54.6759 36.2399 52.2177C37.5095 51.3802 38.1849 50.3267 38.1849 49.2732C38.1849 48.2196 37.4825 47.1931 36.2399 46.3557C32.62 43.8974 26.4339 43.9244 22.76 46.3557Z" fill="#001C51"/>
</svg>
