<svg width="68" height="67" viewBox="0 0 68 67" fill="none" xmlns="http://www.w3.org/2000/svg">
<path d="M53.8363 50.25C55.087 47.2479 55.4222 43.9431 54.7998 40.751C54.1774 37.559 52.6252 34.6222 50.3383 32.3099C50.9676 30.7246 51.0871 28.9825 50.6802 27.3261C50.2732 25.6697 49.3601 24.1813 48.0678 23.0681L53.8799 17.256C54.664 16.47 55.1044 15.4051 55.1044 14.2948C55.1044 13.1846 54.664 12.1197 53.8799 11.3337L47.9583 5.41211C47.1724 4.62777 46.1074 4.18726 44.9971 4.18726C43.8868 4.18726 42.8218 4.62777 42.0359 5.41211L14.4562 32.9918C13.6722 33.7779 13.2319 34.8428 13.2319 35.953C13.2319 37.0632 13.6722 38.1281 14.4562 38.9142L20.3778 44.8358C21.1637 45.6199 22.2287 46.0603 23.339 46.0603C24.4492 46.0603 25.5142 45.6199 26.3001 44.8358L36.2976 34.8373C37.7152 36.4776 39.7225 37.4927 41.8838 37.6623C44.0452 37.8319 46.1863 37.1422 47.8423 35.743C49.5635 37.7123 50.6205 40.1738 50.8633 42.7779C51.1061 45.382 50.5223 47.9965 49.1949 50.25H34.167V58.625H9.04199V62.8125H59.292V50.25H53.8363ZM23.3383 41.875L17.417 35.9526L21.3505 32.0197L27.2723 37.941L23.3383 41.875ZM34.167 29.3125C34.1701 29.8415 34.2235 30.369 34.3265 30.8878L30.233 34.9803L24.3111 29.0589L44.9973 8.37267L50.9191 14.2942L44.1169 21.097C42.9054 20.8563 41.6555 20.8881 40.4578 21.1901C39.2601 21.4921 38.1446 22.0568 37.1921 22.8433C36.2396 23.6297 35.474 24.6182 34.9508 25.7371C34.4276 26.856 34.1599 28.0773 34.167 29.3125ZM42.542 33.5C41.7138 33.5 40.9042 33.2544 40.2155 32.7943C39.5269 32.3341 38.9902 31.6801 38.6732 30.915C38.3563 30.1498 38.2734 29.3078 38.435 28.4955C38.5965 27.6832 38.9954 26.9371 39.581 26.3515C40.1666 25.7658 40.9128 25.367 41.7251 25.2054C42.5373 25.0439 43.3793 25.1268 44.1445 25.4437C44.9096 25.7607 45.5636 26.2974 46.0238 26.986C46.4839 27.6747 46.7295 28.4843 46.7295 29.3125C46.7282 30.4227 46.2866 31.487 45.5016 32.2721C44.7166 33.0571 43.6522 33.4987 42.542 33.5ZM55.1045 58.625H38.3545V54.4375H55.1045V58.625Z" fill="#001C51"/>
</svg>
