<svg width="68" height="67" viewBox="0 0 68 67" fill="none" xmlns="http://www.w3.org/2000/svg">
<mask id="mask0_81_205" style="mask-type:luminance" maskUnits="userSpaceOnUse" x="0" y="0" width="68" height="67">
<path d="M0.666992 0H67.667V67H0.666992V0Z" fill="white"/>
</mask>
<g mask="url(#mask0_81_205)">
<path d="M29.0495 18.4936C28.3115 17.7598 27.1184 17.7633 26.3846 18.5013L23.9511 20.9486C23.6891 21.2121 23.3329 21.3602 22.9613 21.3602H19.7525C18.7118 21.3602 17.8682 22.2039 17.8682 23.2446C17.8682 24.2853 18.7118 25.129 19.7525 25.129H19.7556H19.7587H19.7618H19.765H19.768H19.7712H19.7745H19.7775H19.7807H19.7841H19.7873H19.7905H19.7939H19.7972H19.8004H19.8038H19.8071H19.8106H19.814H19.8173H19.8208H19.8241H19.8276H19.8311H19.8346H19.8381H19.8417H19.8452H19.8489H19.8523H19.856H19.8596H19.8632H19.8669H19.8705H19.8743H19.8779H19.8817H19.8853H19.8891H19.8928H19.8966H19.9004H19.9043H19.908H19.9119H19.9157H19.9196H19.9235H19.9274H19.9313H19.9353H19.9393H19.9432H19.9473H19.9512H19.9552H19.9593H19.9633H19.9674H19.9715H19.9756H19.9798H19.9838H19.988H19.9922H19.9964H20.0006H20.0048H20.009H20.0131H20.0175H20.0217H20.026H20.0303H20.0346H20.039H20.0433H20.0476H20.0521H20.0564H20.0609H20.0652H20.0697H20.0741H20.0786H20.0831H20.0875H20.0921H20.0966H20.1012H20.1057H20.1103H20.1149H20.1195H20.1241H20.1287H20.1333H20.1379H20.1427H20.1473H20.152H20.1568H20.1615H20.1663H20.171H20.1758H20.1805H20.1852H20.1901H20.195H20.1998H20.2047H20.2095H20.2144H20.2193H20.2242H20.2291H20.2341H20.239H20.244H20.2489H20.2539H20.2589H20.264H20.269H20.274H20.279H20.2841H20.2892H20.2943H20.2994H20.3045H20.3096H20.3148H20.3199H20.3251H20.3303H20.3354H20.3407H20.3459H20.3512H20.3564H20.3617H20.367H20.3723H20.3776H20.3829H20.3882H20.3935H20.3988H20.4043H20.4096H20.415H20.4204H20.4257H20.4312H20.4366H20.4421H20.4475H20.4531H20.4586H20.464H20.4696H20.475H20.4806H20.4862H20.4916H20.4972H20.5028H20.5084H20.514H20.5197H20.5253H20.5309H20.5366H20.5422H20.5479H20.5536H20.5592H20.5649H20.5706H20.5764H20.5821H20.5879H20.5937H20.5994H20.6053H20.611H20.6168H20.6226H20.6284H20.6343H20.6402H20.646H20.6519H20.6577H20.6636H20.6695H20.6755H20.6813H20.6873H20.6932H20.6992H20.7052H20.7112H20.7171H20.7231H20.7291H20.7352H20.7412H20.7472H20.7532H20.7594H20.7654H20.7715H20.7775H20.7836H20.7898H20.7959H20.8019H20.8081H20.8142H20.8205H20.8266H20.8328H20.8389H20.8452H20.8513H20.8576H20.8638H20.87H20.8763H20.8825H20.8887H20.895H20.9013H20.9076H20.9139H20.9202H20.9266H20.9329H20.9391H20.9456H20.9518H20.9583H20.9647H20.971H20.9774H20.9838H20.9902H20.9966H21.0031H21.0095H21.0159H21.0223H21.0288H21.0353H21.0417H21.0482H21.0547H21.0613H21.0677H21.0743H21.0808H21.0872H21.0938H21.1004H21.1069H21.1135H21.12H21.1266H21.1332H21.1399H21.1464H21.153H21.1597H21.1662H21.1729H21.1795H21.1862H21.1929H21.1995H21.2062H21.2129H21.2196H21.2263H21.233H21.2397H21.2464H21.2531H21.2599H21.2666H21.2733H21.2801H21.2868H21.2935H21.3004H21.3072H21.3139H21.3208H21.3276H21.3343H21.3411H21.348H21.3548H21.3617H21.3685H21.3753H21.3822H21.389H21.396H21.4028H21.4097H21.4165H21.4235H21.4303H21.4373H21.4441H21.4511H21.458H21.4649H21.4719H21.4788H21.4857H21.4927H21.4997H21.5067H21.5137H21.5206H21.5276H21.5346H21.5416H21.5486H21.5555H21.5627H21.5696H21.5766H21.5837H21.5907H21.5977H21.6048H21.6118H21.6189H21.6259H21.633H21.6401H21.6471H21.6542H21.6613H21.6685H21.6756H21.6826H21.6897H21.6968H21.7039H21.711H21.7182H21.7253H21.7325H21.7396H21.7468H21.7539H21.761H21.7683H21.7754H21.7825H21.7898H21.7969H21.8041H21.8113H21.8185H21.8256H21.8329H21.84H21.8473H21.8545H21.8616H21.8689H21.8762H21.8833H21.8905H21.8978H21.9051H21.9123H21.9196H21.9268H21.9341H21.9413H21.9486H21.9559H21.9631H21.9704H21.9776H21.9849H21.9922H21.9994H22.0068H22.0141H22.0213H22.0286H22.036H22.0432H22.0505H22.0579H22.0652H22.0724H22.0798H22.0871H22.0945H22.1017H22.1091H22.1164H22.1238H22.131H22.1384H22.1458H22.1531H22.1605H22.1679H22.1751H22.1825H22.1899H22.1972H22.2046H22.212H22.2194H22.2267H22.2341H22.2415H22.2488H22.2562H22.2636H22.271H22.2783H22.2857H22.2931H22.3005H22.3079H22.3153H22.3227H22.3301H22.3375H22.3449H22.3523H22.3597H22.3671H22.3745H22.3819H22.3893H22.3967H22.4042H22.4116H22.419H22.4264H22.4338H22.4412H22.4486H22.456H22.4635H22.4709H22.4783H22.4857H22.4931H22.5007H22.5081H22.5155H22.5229H22.5302H22.5378H22.5452H22.5526H22.56H22.5674H22.5749H22.5823H22.5897H22.5971H22.6046H22.612H22.6194H22.6268H22.6344H22.6418H22.6492H22.6566H22.6641H22.6715H22.6789H22.6864H22.6938H22.7012H22.7086H22.7162H22.7236H22.731H22.7384H22.7459H22.7533H22.7607H22.7681H22.7755H22.783H22.7904H22.7978H22.8052H22.8128H22.8202H22.8276H22.835H22.8424H22.8499C24.3631 25.129 25.8114 24.5148 26.8633 23.4269L29.0435 21.1725L29.057 21.1585C29.7908 20.4206 29.7875 19.2275 29.0495 18.4936ZM29.0495 18.4936L30.0186 17.519" stroke="#001C51" stroke-width="3" stroke-linecap="round" stroke-linejoin="round"/>
<path d="M49.1311 9.77094C49.1311 12.0837 47.2564 13.9584 44.9436 13.9584C42.631 13.9584 40.7561 12.0837 40.7561 9.77094C40.7561 7.45832 42.631 5.58344 44.9436 5.58344C47.2564 5.58344 49.1311 7.45829 49.1311 9.77094Z" stroke="#001C51" stroke-width="3"/>
<path d="M43.8655 20.8715L44.2761 21.2906H44.8626H47.2902C48.3474 21.2906 49.2043 22.1475 49.2043 23.2045C49.2043 24.2608 48.3491 25.117 47.2934 25.1184C45.746 25.1203 44.1066 25.1221 43.4705 25.1223C43.4693 25.1221 43.468 25.1221 43.4666 25.122C43.4274 25.1181 43.3718 25.1139 43.3054 25.1139H43.2872L43.269 25.1145C43.0694 25.1196 42.8706 25.0833 42.6855 25.0079C42.5001 24.9323 42.3326 24.8194 42.1935 24.6762L42.1802 24.6626L41.2856 23.7666L40.2806 22.7601L39.2932 23.7838C38.8856 24.2063 38.3971 24.5427 37.8569 24.7726C37.3169 25.0025 36.7362 25.1214 36.1491 25.1223H33.6522L33.2114 16.3098H37.6362C38.7615 16.3098 39.8395 16.7628 40.6272 17.5666L43.8655 20.8715Z" stroke="#001C51" stroke-width="3"/>
<path d="M31.4005 61.573H32.7963V62.9688H31.4005V61.573ZM31.4005 54.5938V53.198H32.7963V54.5938H31.4005ZM16.0463 61.573V62.9688H14.6505V61.573H16.0463ZM16.0463 54.5938H14.6505V53.198H16.0463V54.5938ZM16.7047 54.5938L17.8472 53.792L19.3895 55.9896H16.7047V54.5938ZM19.148 45.7894L20.3928 45.1578L18.024 46.617L19.148 45.7894ZM16.2329 40.0439L17.4513 39.3629L17.465 39.3873L17.4777 39.4124L16.2329 40.0439ZM21.1114 38.9849L22.121 38.0208L22.1634 38.0653L22.2018 38.1133L21.1114 38.9849ZM26.2131 45.3672L27.3034 44.4958L27.319 44.5152L27.3338 44.5352L26.2131 45.3672ZM28.5383 54.5938V55.9896H27.3023L27.1528 54.7627L28.5383 54.5938ZM30.0046 61.573V54.5938H32.7963V61.573H30.0046ZM16.0463 60.1771H31.4005V62.9688H16.0463V60.1771ZM17.4421 54.5938V61.573H14.6505V54.5938H17.4421ZM16.7047 55.9896H16.0463V53.198H16.7047V55.9896ZM15.5621 55.3957C14.7864 54.2903 13.9589 53.4167 13.0496 52.46L15.0731 50.5368C15.9711 51.4814 16.9366 52.4943 17.8472 53.792L15.5621 55.3957ZM13.0496 52.46C11.8598 51.2081 10.5565 49.8422 9.35917 47.8074L11.7652 46.3916C12.7839 48.123 13.884 49.2856 15.0731 50.5368L13.0496 52.46ZM9.35917 47.8074C9.09056 47.351 8.8167 46.91 8.54145 46.4671L10.9127 44.9937C11.1854 45.4327 11.4768 45.9015 11.7652 46.3916L9.35917 47.8074ZM8.54145 46.4671C7.60503 44.96 6.51638 43.261 6.31039 41.44L9.08436 41.1262C9.20493 42.1921 9.8702 43.316 10.9127 44.9937L8.54145 46.4671ZM6.31039 41.44C6.1954 40.4234 6.11271 37.1164 6.12589 33.9281C6.13255 32.3156 6.16384 30.6957 6.2307 29.3654C6.26408 28.7012 6.307 28.0949 6.36219 27.591C6.41332 27.1241 6.4859 26.6295 6.61329 26.2587L9.25354 27.1655C9.25442 27.163 9.24914 27.1784 9.23979 27.2177C9.23077 27.2558 9.22011 27.3072 9.20839 27.3737C9.18478 27.5075 9.1607 27.6809 9.13726 27.8949C9.09039 28.323 9.05083 28.8692 9.01885 29.5055C8.95501 30.776 8.92411 32.3487 8.91753 33.9395C8.90424 37.1578 8.99087 40.2996 9.08436 41.1262L6.31039 41.44ZM6.61329 26.2587C7.12337 24.7738 8.69896 23.8151 10.2695 23.8521C12.0473 23.894 13.5963 25.1286 14.3025 27.438L11.6329 28.2544C11.194 26.8192 10.5133 26.6503 10.2038 26.6431C9.68714 26.6308 9.31812 26.9775 9.25354 27.1655L6.61329 26.2587ZM14.3025 27.438C14.9224 29.4652 15.1066 32.0128 15.2649 34.1213L12.4811 34.3304C12.3157 32.128 12.1431 29.9227 11.6329 28.2544L14.3025 27.438ZM15.2649 34.1213C15.3489 35.241 15.4246 36.2403 15.5416 37.0753C15.6647 37.9548 15.81 38.4476 15.9328 38.6637L13.5057 40.0431C13.0971 39.3241 12.9024 38.3596 12.7768 37.4623C12.645 36.5204 12.5632 35.4234 12.4811 34.3304L15.2649 34.1213ZM15.9328 38.6637C16.4169 39.5155 17.4816 41.0668 18.4662 42.457C18.9502 43.1404 19.4022 43.7673 19.7332 44.2235C19.8987 44.4514 20.0338 44.6365 20.1273 44.7643C20.174 44.8283 20.2105 44.8778 20.235 44.9113C20.2473 44.9281 20.2567 44.9409 20.263 44.9493C20.266 44.9536 20.2684 44.9567 20.2699 44.9588C20.2706 44.9599 20.2712 44.9606 20.2716 44.9612C20.2716 44.961 20.2718 44.9613 20.2716 44.9612C20.2716 44.9612 20.272 44.9617 19.148 45.7894C18.024 46.617 18.0242 46.6172 18.024 46.617C18.0239 46.6168 18.0235 46.6163 18.0232 46.6159C18.0228 46.6154 18.0221 46.6145 18.0213 46.6133C18.0196 46.6109 18.0171 46.6075 18.0137 46.6029C18.0072 46.594 17.9974 46.5807 17.9847 46.5634C17.9591 46.5288 17.922 46.478 17.8743 46.4128C17.7788 46.2825 17.6417 46.0944 17.4739 45.8633C17.1385 45.4011 16.68 44.7652 16.188 44.0703C15.2204 42.7042 14.0708 41.0375 13.5057 40.0431L15.9328 38.6637ZM17.9033 46.4209L14.9881 40.6755L17.4777 39.4124L20.3928 45.1578L17.9033 46.4209ZM16.2329 40.0439C15.0145 40.7251 15.0142 40.7244 15.0138 40.7238C15.0138 40.7235 15.0134 40.723 15.0131 40.7226C15.0127 40.7217 15.0123 40.7209 15.0117 40.7199C15.0107 40.7182 15.0097 40.7164 15.0088 40.7146C15.0067 40.7108 15.0046 40.7069 15.0023 40.7028C14.9979 40.6945 14.9933 40.6856 14.9881 40.6755C14.9778 40.6554 14.9656 40.6316 14.9529 40.6045C14.9272 40.5503 14.8972 40.4822 14.8656 40.4004C14.802 40.2365 14.7317 40.018 14.6742 39.7463C14.5586 39.1997 14.4989 38.4532 14.6426 37.5253L17.4014 37.9525C17.3113 38.5342 17.3571 38.9402 17.4054 39.1687C17.43 39.2847 17.4561 39.3593 17.4686 39.3918C17.4749 39.4081 17.478 39.414 17.4758 39.4092C17.4745 39.4069 17.4721 39.4018 17.4682 39.394C17.4661 39.3902 17.4638 39.3856 17.461 39.3805C17.4596 39.378 17.458 39.3752 17.4565 39.3722C17.4557 39.3707 17.4548 39.3692 17.454 39.3676C17.4536 39.3669 17.4531 39.3661 17.4527 39.3653C17.4525 39.3648 17.4529 39.3654 17.4527 39.3653C17.4523 39.3646 17.4513 39.3629 16.2329 40.0439ZM14.6426 37.5253C14.8099 36.4452 15.4708 35.247 16.2833 34.5269C16.6804 34.1749 17.3342 33.743 18.1546 33.7842C19.11 33.8322 19.7464 34.4743 20.0929 35.1779L17.5885 36.4114C17.5513 36.3357 17.5524 36.3718 17.6318 36.4339C17.7253 36.507 17.8625 36.5647 18.0146 36.5723C18.2655 36.5849 18.3101 36.461 18.135 36.616C17.9942 36.7408 17.8203 36.9572 17.6687 37.2334C17.5169 37.5101 17.4296 37.7705 17.4014 37.9525L14.6426 37.5253ZM20.0929 35.1779C20.4448 35.8923 20.9461 36.6028 21.3813 37.1536C21.595 37.4242 21.7846 37.646 21.9193 37.7986C21.9864 37.8747 22.0394 37.933 22.0745 37.971C22.0919 37.9899 22.1049 38.0038 22.1129 38.0123C22.1168 38.0165 22.1196 38.0193 22.121 38.0208C22.1217 38.0215 22.1219 38.0219 22.1219 38.0219C22.1218 38.0218 22.121 38.0208 21.1114 38.9849C20.1019 39.9489 20.1017 39.9487 20.1016 39.9486C20.1016 39.9484 20.1017 39.9487 20.1016 39.9486C20.1015 39.9484 20.1009 39.9477 20.1006 39.9475C20.1001 39.9469 20.0995 39.9463 20.0988 39.9457C20.0974 39.9441 20.0957 39.9423 20.0936 39.9401C20.0895 39.9357 20.084 39.9299 20.0772 39.9226C20.0635 39.9081 20.0447 39.8879 20.0211 39.8622C19.9737 39.811 19.9076 39.7379 19.8263 39.6461C19.6644 39.4626 19.4412 39.2014 19.1907 38.8841C18.6971 38.2593 18.0631 37.3747 17.5885 36.4114L20.0929 35.1779ZM22.2018 38.1133L27.3034 44.4958L25.1228 46.2388L20.0211 39.8563L22.2018 38.1133ZM26.2131 45.3672C27.3338 44.5352 27.3337 44.535 27.3338 44.5352C27.334 44.5354 27.3348 44.5364 27.335 44.5367C27.3355 44.5374 27.3361 44.5381 27.3368 44.5391C27.338 44.5409 27.3398 44.5432 27.3419 44.5462C27.3463 44.552 27.3521 44.5599 27.3594 44.5699C27.3739 44.5899 27.3943 44.6179 27.4197 44.6534C27.4704 44.7243 27.5414 44.8249 27.6261 44.9487C27.7946 45.1954 28.0214 45.5403 28.2519 45.9306C28.4801 46.3171 28.7251 46.77 28.9201 47.2298C29.104 47.6639 29.295 48.2208 29.3159 48.7829L26.5262 48.8865C26.5243 48.8343 26.4903 48.6508 26.3499 48.3195C26.2202 48.014 26.0412 47.6769 25.8481 47.3501C25.6573 47.027 25.4658 46.7354 25.3212 46.5238C25.2493 46.4187 25.19 46.3347 25.1496 46.2783C25.1295 46.2502 25.1142 46.229 25.1043 46.2155C25.0994 46.2088 25.0959 46.204 25.0938 46.2012C25.0928 46.2 25.0923 46.1991 25.092 46.1987C25.092 46.1986 25.092 46.1988 25.092 46.1987C25.092 46.1987 25.0924 46.1993 26.2131 45.3672ZM29.3159 48.7829C29.3455 49.5804 29.7063 52.6401 29.9239 54.4249L27.1528 54.7627C26.9452 53.0602 26.5614 49.8357 26.5262 48.8865L29.3159 48.7829ZM31.4005 55.9896H28.5383V53.198H31.4005V55.9896Z" fill="#001C51"/>
<path d="M36.9334 61.573H35.5376V62.9688H36.9334V61.573ZM36.9334 54.5938V53.198H35.5376V54.5938H36.9334ZM52.2876 61.573V62.9688H53.6834V61.573H52.2876ZM52.2876 54.5938H53.6834V53.198H52.2876V54.5938ZM51.6292 54.5938L50.4867 53.792L48.9444 55.9896H51.6292V54.5938ZM49.1859 45.7894L47.9411 45.1578L50.3098 46.617L49.1859 45.7894ZM52.101 40.0439L50.8826 39.3629L50.8689 39.3873L50.8562 39.4124L52.101 40.0439ZM47.2225 38.9849L46.2129 38.0208L46.1705 38.0653L46.1321 38.1133L47.2225 38.9849ZM42.1208 45.3672L41.0305 44.4958L41.0148 44.5152L41.0001 44.5352L42.1208 45.3672ZM39.7956 54.5938V55.9896H41.0316L41.1811 54.7627L39.7956 54.5938ZM38.3293 61.573V54.5938H35.5376V61.573H38.3293ZM52.2876 60.1771H36.9334V62.9688H52.2876V60.1771ZM50.8918 54.5938V61.573H53.6834V54.5938H50.8918ZM51.6292 55.9896H52.2876V53.198H51.6292V55.9896ZM52.7718 55.3957C53.5475 54.2903 54.3751 53.4167 55.2843 52.46L53.2608 50.5368C52.3628 51.4814 51.3973 52.4943 50.4867 53.792L52.7718 55.3957ZM55.2843 52.46C56.4743 51.2081 57.7774 49.8422 58.9748 47.8074L56.5688 46.3916C55.5499 48.123 54.4499 49.2856 53.2608 50.5368L55.2843 52.46ZM58.9748 47.8074C59.2433 47.351 59.5172 46.91 59.7924 46.4671L57.4212 44.9937C57.1484 45.4327 56.857 45.9015 56.5688 46.3916L58.9748 47.8074ZM59.7924 46.4671C60.7289 44.96 61.8175 43.261 62.0235 41.44L59.2495 41.1262C59.129 42.1921 58.4637 43.316 57.4212 44.9937L59.7924 46.4671ZM62.0235 41.44C62.1386 40.4234 62.2212 37.1164 62.2079 33.9281C62.2014 32.3156 62.1701 30.6957 62.1032 29.3654C62.0699 28.7012 62.0269 28.0949 61.9718 27.591C61.9205 27.1241 61.8479 26.6295 61.7206 26.2587L59.0804 27.1655C59.0794 27.163 59.0847 27.1784 59.0941 27.2177C59.1032 27.2558 59.1138 27.3072 59.1255 27.3737C59.1491 27.5075 59.1732 27.6809 59.1966 27.8949C59.2435 28.323 59.2831 28.8692 59.3151 29.5055C59.3788 30.776 59.4098 32.3487 59.4164 33.9395C59.4297 37.1578 59.343 40.2996 59.2495 41.1262L62.0235 41.44ZM61.7206 26.2587C61.2105 24.7738 59.635 23.8151 58.0644 23.8521C56.2867 23.894 54.7376 25.1286 54.0314 27.438L56.7009 28.2544C57.1398 26.8192 57.8207 26.6503 58.13 26.6431C58.6467 26.6308 59.0158 26.9775 59.0804 27.1655L61.7206 26.2587ZM54.0314 27.438C53.4115 29.4652 53.2273 32.0128 53.069 34.1213L55.8528 34.3304C56.0181 32.128 56.1909 29.9227 56.7009 28.2544L54.0314 27.438ZM53.069 34.1213C52.985 35.241 52.9093 36.2403 52.7923 37.0753C52.6692 37.9548 52.5239 38.4476 52.4011 38.6637L54.8282 40.0431C55.2369 39.3241 55.4314 38.3596 55.5571 37.4623C55.689 36.5204 55.7708 35.4234 55.8528 34.3304L53.069 34.1213ZM52.4011 38.6637C51.917 39.5155 50.8523 41.0668 49.8676 42.457C49.3837 43.1404 48.9317 43.7673 48.6006 44.2235C48.4352 44.4514 48.3001 44.6365 48.2066 44.7643C48.1598 44.8283 48.1234 44.8778 48.0988 44.9113C48.0866 44.9281 48.0772 44.9409 48.0709 44.9493C48.0679 44.9536 48.0655 44.9567 48.0639 44.9588C48.0633 44.9599 48.0627 44.9606 48.0623 44.9612C48.0621 44.9613 48.0623 44.961 48.0623 44.9612C48.0623 44.9612 48.0619 44.9617 49.1859 45.7894C50.3098 46.617 50.3097 46.6172 50.3098 46.617C50.31 46.6168 50.3104 46.6163 50.3107 46.6159C50.3111 46.6154 50.3118 46.6145 50.3126 46.6133C50.3143 46.6109 50.3168 46.6075 50.3202 46.6029C50.3267 46.594 50.3365 46.5807 50.3492 46.5634C50.3748 46.5288 50.4119 46.478 50.4596 46.4128C50.5551 46.2825 50.6922 46.0944 50.8599 45.8633C51.1954 45.4011 51.6539 44.7652 52.1459 44.0703C53.1135 42.7042 54.2631 41.0375 54.8282 40.0431L52.4011 38.6637ZM50.4306 46.4209L53.3458 40.6755L50.8562 39.4124L47.9411 45.1578L50.4306 46.4209ZM52.101 40.0439C53.3194 40.7251 53.3197 40.7244 53.3201 40.7238C53.3201 40.7235 53.3205 40.723 53.3208 40.7226C53.3212 40.7217 53.3216 40.7209 53.3222 40.7199C53.3232 40.7182 53.3241 40.7164 53.3251 40.7146C53.3272 40.7108 53.3293 40.7069 53.3315 40.7028C53.336 40.6945 53.3406 40.6856 53.3458 40.6755C53.3561 40.6554 53.3683 40.6316 53.381 40.6045C53.4066 40.5503 53.4366 40.4822 53.4683 40.4004C53.5318 40.2365 53.6022 40.018 53.6597 39.7463C53.7753 39.1997 53.835 38.4532 53.6912 37.5253L50.9325 37.9525C51.0226 38.5342 50.9768 38.9402 50.9285 39.1687C50.9039 39.2847 50.8778 39.3593 50.8652 39.3918C50.859 39.4081 50.8559 39.414 50.8581 39.4092C50.8594 39.4069 50.8618 39.4018 50.8657 39.394C50.8678 39.3902 50.8701 39.3856 50.8729 39.3805C50.8743 39.378 50.8759 39.3752 50.8774 39.3722C50.8782 39.3707 50.8791 39.3692 50.8799 39.3676C50.8803 39.3669 50.8807 39.3661 50.8812 39.3653C50.881 39.3654 50.8814 39.3648 50.8812 39.3653C50.8816 39.3646 50.8826 39.3629 52.101 40.0439ZM53.6912 37.5253C53.524 36.4452 52.8631 35.247 52.0506 34.5269C51.6535 34.1749 50.9997 33.743 50.1793 33.7842C49.2239 33.8322 48.5875 34.4743 48.2409 35.1779L50.7453 36.4114C50.7826 36.3357 50.7815 36.3718 50.7021 36.4339C50.6086 36.507 50.4713 36.5647 50.3193 36.5723C50.0684 36.5849 50.0238 36.461 50.1989 36.616C50.3397 36.7408 50.5136 36.9572 50.6652 37.2334C50.8169 37.5101 50.9043 37.7705 50.9325 37.9525L53.6912 37.5253ZM48.2409 35.1779C47.8891 35.8923 47.3878 36.6028 46.9526 37.1536C46.7389 37.4242 46.5493 37.646 46.4146 37.7986C46.3475 37.8747 46.2944 37.933 46.2594 37.971C46.242 37.9899 46.229 38.0038 46.221 38.0123C46.2171 38.0165 46.2143 38.0193 46.2129 38.0208C46.2131 38.0207 46.2129 38.0208 47.2225 38.9849C48.232 39.9489 48.2321 39.9487 48.2323 39.9486C48.2321 39.9487 48.2323 39.9484 48.2323 39.9486L48.2333 39.9475L48.2351 39.9457C48.2365 39.9441 48.2381 39.9423 48.2402 39.9401C48.2444 39.9357 48.2499 39.9299 48.2567 39.9226C48.2704 39.9081 48.2892 39.8879 48.3128 39.8622C48.3601 39.811 48.4263 39.7379 48.5075 39.6461C48.6695 39.4626 48.8927 39.2014 49.1432 38.8841C49.6368 38.2593 50.2708 37.3747 50.7453 36.4114L48.2409 35.1779ZM46.1321 38.1133L41.0305 44.4958L43.2111 46.2388L48.3128 39.8563L46.1321 38.1133ZM42.1208 45.3672C41.0001 44.5352 41.0002 44.535 41.0001 44.5352C40.9999 44.5354 40.9991 44.5364 40.9989 44.5367C40.9984 44.5374 40.9978 44.5381 40.9971 44.5391C40.9959 44.5409 40.9941 44.5432 40.992 44.5462C40.9876 44.552 40.9818 44.5599 40.9745 44.5699C40.96 44.5899 40.9396 44.6179 40.9142 44.6534C40.8635 44.7243 40.7925 44.8249 40.7078 44.9487C40.5393 45.1954 40.3125 45.5403 40.082 45.9306C39.8538 46.3171 39.6088 46.77 39.4138 47.2298C39.2299 47.6639 39.0389 48.2208 39.018 48.7829L41.8077 48.8865C41.8096 48.8343 41.8436 48.6508 41.984 48.3195C42.1136 48.014 42.2927 47.6769 42.4858 47.3501C42.6766 47.027 42.8681 46.7354 43.0127 46.5238C43.0846 46.4187 43.1439 46.3347 43.1843 46.2783C43.2044 46.2502 43.2197 46.229 43.2296 46.2155C43.2345 46.2088 43.238 46.204 43.2401 46.2012C43.2411 46.2 43.2416 46.1991 43.2419 46.1987C43.2419 46.1987 43.2415 46.1993 42.1208 45.3672ZM39.018 48.7829C38.9884 49.5804 38.6276 52.6401 38.4099 54.4249L41.1811 54.7627C41.3887 53.0602 41.7725 49.8357 41.8077 48.8865L39.018 48.7829ZM36.9334 55.9896H39.7956V53.198H36.9334V55.9896Z" fill="#001C51"/>
</g>
</svg>
