<svg width="58" height="68" viewBox="0 0 58 68" fill="none" xmlns="http://www.w3.org/2000/svg">
<path d="M55.9101 13.541L55.9101 13.5411L55.9226 13.5467C55.9766 13.5707 56.1886 13.7499 56.1886 14.1566V19.0358C56.1886 19.2834 56.1036 19.4656 56.0197 19.5651C55.979 19.6134 55.9449 19.6355 55.9277 19.6441C55.9138 19.6511 55.9085 19.6509 55.907 19.6509L55.9067 19.6509H2.44892L2.44867 19.6509C2.4471 19.6509 2.44184 19.6511 2.42794 19.6441C2.41074 19.6355 2.37661 19.6134 2.33592 19.5651C2.25206 19.4656 2.16699 19.2834 2.16699 19.0358V14.1567C2.16699 14.1566 2.16699 14.1566 2.16699 14.1566C2.16702 13.9778 2.214 13.8208 2.27969 13.7082C2.34483 13.5966 2.41011 13.5569 2.43327 13.5466L2.43329 13.5466L2.4455 13.541L28.5428 1.6375C28.9577 1.45417 29.3991 1.45416 29.8139 1.6375C29.8156 1.63824 29.8173 1.63898 29.8189 1.63973L55.9101 13.541ZM7.7947 48.032H9.2947V46.532V26.8811H13.4224V46.532V48.032H14.9224H25.614H27.114V46.532V26.8811H31.2417V46.532V48.032H32.7417H43.4332H44.9332V46.532V26.8811H49.0609V46.532V48.032H50.5609H52.3429C52.3441 48.032 52.3491 48.0314 52.3638 48.0388C52.381 48.0474 52.4152 48.0695 52.4559 48.1178C52.5397 48.2173 52.6248 48.3995 52.6248 48.6471V53.4923H5.73085V48.6471C5.73085 48.3995 5.81592 48.2173 5.89977 48.1178C5.94047 48.0695 5.97459 48.0474 5.99179 48.0388C6.00656 48.0314 6.01157 48.032 6.01277 48.032H7.7947ZM2.44892 60.7225H55.9067C55.9077 60.7225 55.9111 60.7221 55.9201 60.7258C55.9223 60.7267 55.9248 60.7279 55.9277 60.7293C55.9449 60.738 55.979 60.76 56.0197 60.8083C56.1036 60.9078 56.1886 61.09 56.1886 61.3376V65.5678C56.1886 65.8154 56.1036 65.9976 56.0197 66.0971C55.979 66.1454 55.9449 66.1674 55.9277 66.1761C55.9138 66.1831 55.9085 66.1829 55.907 66.1829H55.9067H2.44892C2.44772 66.1829 2.4427 66.1835 2.42794 66.1761C2.41074 66.1674 2.37661 66.1454 2.33592 66.0971C2.25206 65.9976 2.16699 65.8154 2.16699 65.5678V61.3376C2.16699 61.09 2.25206 60.9078 2.33592 60.8083C2.37661 60.76 2.41074 60.738 2.42794 60.7293C2.44185 60.7224 2.4471 60.7225 2.44867 60.7225L2.44892 60.7225Z" stroke="#001C51" stroke-width="3"/>
</svg>
