<svg width="68" height="67" viewBox="0 0 68 67" fill="none" xmlns="http://www.w3.org/2000/svg">
<path d="M34.167 58.6251C48.0431 58.6251 59.292 47.3762 59.292 33.5001C59.292 19.6239 48.0431 8.37506 34.167 8.37506C20.2908 8.37506 9.04199 19.6239 9.04199 33.5001C9.04199 47.3762 20.2908 58.6251 34.167 58.6251Z" stroke="#001C51" stroke-width="4" stroke-linecap="round" stroke-linejoin="round"/>
<path d="M34.167 33.5001C36.3541 37.374 39.6483 40.5066 43.6273 42.4961C47.6064 44.4856 52.0889 45.2415 56.5003 44.6667M21.6045 37.6876C23.8863 42.3418 27.217 46.4031 31.3345 49.5518C35.4521 52.7005 40.2441 54.8508 45.3337 55.8334" stroke="#001C51" stroke-width="4" stroke-linecap="round" stroke-linejoin="round"/>
<path d="M34.1667 33.5C29.7183 33.4571 25.3583 34.7437 21.6458 37.1949C17.9333 39.6461 15.0374 43.1502 13.3295 47.2579M36.8215 20.5269C31.6499 20.1758 26.4674 21.0296 21.6818 23.0212C16.8961 25.0127 12.6379 28.0877 9.24218 32.004" stroke="#001C51" stroke-width="4" stroke-linecap="round" stroke-linejoin="round"/>
<path d="M34.1667 33.4998C36.4282 29.6688 37.4939 25.2497 37.2274 20.8089C36.9608 16.3682 35.3741 12.1083 32.6707 8.57527M44.0745 42.2855C46.9643 37.9823 48.8161 33.0672 49.4842 27.9269C50.1523 22.7867 49.6184 17.5615 47.9246 12.6625" stroke="#001C51" stroke-width="4" stroke-linecap="round" stroke-linejoin="round"/>
</svg>
